<?xml version="1.0" encoding="utf-8"?>
<!-- Generator: Adobe Illustrator 16.0.0, SVG Export Plug-In . SVG Version: 6.00 Build 0)  -->
<svg version="1.2" baseProfile="tiny" id="Ebene_1" xmlns="http://www.w3.org/2000/svg" xmlns:xlink="http://www.w3.org/1999/xlink"
	 x="0px" y="0px" width="170.079px" height="170.079px" viewBox="-14.54 4.96 170.079 170.079" xml:space="preserve">
<g>
	<path d="M44.637,67.747c0.087-0.702-0.352-1.579-0.615-2.194c-0.176-0.438-0.176-0.526-0.526-1.052
		c-0.263-0.352-0.79-0.438-1.054-0.79c0.176,0,0.352,0.088,0.527,0.088c0.263-0.615,0.175-1.316,0-1.843
		c1.667-0.877-0.352-2.72-0.702-3.772c2.017,0.438,1.754-1.842,1.14-3.158c1.316,0.264,1.755,0.527,1.755-0.964
		c0-0.791-0.352-1.667-0.878-2.106c0.439-0.088,0.878-0.263,1.14-0.614c0.352,0.438,1.404-0.526,1.843-0.702
		c0.087-0.087,0.614,0,0.877,0c0.088-0.087,0.527-0.877,0.702-0.965c0.789,0.877-0.526,1.843-0.79,2.808
		c-0.35,0.964-0.262,2.104-0.262,3.07c0,2.281,1.491,4.123,1.578,6.228c0.088,2.282-1.666,4.211-1.929,6.404
		c-0.176,1.315,0.613,4.913-0.088,5.878c0,0.087,0,0.087,0,0.087c0.176-2.192-2.631-4.736-2.719-7.194V67.747z"/>
	<g>
		<path d="M45.078,67.669c-0.166-1.064-0.446-1.797-0.849-2.801c-0.471-1.174-0.846-0.546-1.301-0.623
			c0.254,0.042,0.449-0.177,0.488-0.404c0.292-1.691,0.897-2.711,0.135-4.319c-0.767-1.618,1.013-0.894,0.743-2.767
			c-0.311-2.157,0.638-0.208,1.2-1.721c0.639-1.722-0.881-4.175,2.609-3.948c0.158,0.01,0.32-0.054,0.409-0.189
			c0.768-1.163-0.143,0.016-0.377,0.469c-0.715,1.383-0.786,2.561-0.786,4.145c0,3.61,2.219,6.017,0.493,9.975
			c-0.925,2.122-0.873,3.61-0.686,5.848c0.042,0.916-0.041,1.811-0.247,2.688c0.657-0.331,0.896-0.727,0.716-1.186
			c-0.822-2.033-2.113-3.759-2.548-5.956c-0.095-0.479-0.887-0.485-0.887,0.035c0,0.264,0,0.527,0,0.791
			c0,0.573,0.892,0.661,0.892,0.084c0-1.054-0.745,0.275-0.606,0.594c0.85,1.949,2.179,3.674,2.438,5.845
			c0.06,0.498,0.887,0.471,0.887-0.036c0-0.973,0.286-1.973,0.236-3.015c-0.089-1.895-0.075-3.604,0.644-5.382
			c0.303-0.748,0.908-1.821,0.996-2.641c0.258-2.423-0.581-4.008-1.286-6.358c-0.851-2.838,1.48-4.618,0.896-7.199
			c-0.088-0.391-0.562-0.489-0.808-0.179c-0.955,1.201-3.021,1.398-4.388,2.133c-0.272,0.146-0.318,0.45-0.149,0.694
			c1.087,2.119,0.922,2.897-0.494,2.335c-0.37-0.076-0.547,0.355-0.446,0.638c-0.231,0.84-0.462,1.68-0.693,2.52
			c-0.318,0.011-0.62,0.302-0.447,0.638c0.511,0.991,1.593,2.104,0.739,3.323c-0.252,0.36,0.192,1.618-0.119,1.565
			c-0.464-0.078-0.636,0.56-0.299,0.812c1.343,1.006,1.74,2.012,2.01,3.747C44.285,68.395,45.167,68.239,45.078,67.669z"/>
	</g>
</g>
<g>
	<path d="M94.331,67.551c-0.114-0.701,0.456-1.579,0.798-2.192c0.229-0.439,0.229-0.526,0.685-1.053
		c0.341-0.351,1.025-0.439,1.368-0.79c-0.229,0-0.456,0.088-0.685,0.088c-0.343-0.613-0.229-1.315,0-1.842
		c-2.166-0.877,0.455-2.719,0.912-3.771c-2.622,0.438-2.28-1.843-1.482-3.158c-1.71,0.263-2.28,0.525-2.28-0.966
		c0-0.79,0.457-1.667,1.141-2.105c-0.57-0.087-1.141-0.263-1.481-0.614c-0.456,0.439-1.824-0.526-2.395-0.701
		c-0.114-0.088-0.799,0-1.14,0c-0.114-0.088-0.684-0.877-0.912-0.965c-1.026,0.877,0.684,1.842,1.026,2.808
		c0.456,0.964,0.341,2.105,0.341,3.069c0,2.282-1.938,4.124-2.051,6.229c-0.114,2.28,2.166,4.211,2.508,6.403
		c0.228,1.316-0.798,4.912,0.113,5.878c0,0.087,0,0.087,0,0.087c-0.228-2.193,3.42-4.737,3.534-7.193V67.551z"/>
	<g>
		<path d="M94.777,67.593c0.351-1.736,1.086-2.801,2.598-3.673c0.435-0.251,0.245-0.911-0.271-0.845
			c-0.062-0.386-0.124-0.771-0.187-1.158c0.051-0.209,0.01-0.383-0.163-0.522c-1.145-0.921,0.588-2.501,1.021-3.148
			c0.172-0.256,0.027-0.706-0.324-0.703c-1.476-0.73-1.844-1.583-1.104-2.557c0.154-0.319-0.189-0.645-0.498-0.596
			c-0.231-0.791-0.463-1.583-0.694-2.374c0.182-0.203,0.05-0.611-0.212-0.677c-1.696-0.427-4.507-0.957-5.741-2.15
			c-0.253-0.244-0.609-0.186-0.762,0.134c-0.362,0.76-0.539,1.052,0.078,1.815c2.995,3.706-0.051,6.853-0.787,10.404
			c-0.505,2.43,2.462,4.861,2.531,7.229c0.048,1.625,0.09,3.599,0.09,5.141c0,0.569,0.819,0.666,0.891,0.084
			c0.226-1.833,1.665-3.396,2.665-4.862c0.764-1.119-0.021-2.18-0.021-1.627C93.886,68.082,94.777,68.169,94.777,67.593
			c0-0.263,0-0.526,0-0.789c0-0.468-0.743-0.726-0.865-0.197c-0.487,2.112-2.08,3.36-2.953,5.238
			c-0.683,1.468-0.023,1.245,0.243,1.831c-0.915-2.013,0.517-3.866-0.077-5.764c-0.921-2.945-3.268-5.067-1.758-8.615
			c1.025-2.408,2.344-5.63,0.412-8.021c-1.855-2.295-0.539-0.431-0.049-0.385c0.732,0.069,3.144,0.513,3.974,1.028
			c0.259,0.16-1.03,2.427-0.197,3.13c0.509,0.43,0.672,0.511,1.421,0.393c0.297-0.047-0.062,1.255,0.018,1.704
			c0.411,2.33,2.271-0.021,0.439,2.955c-0.558,0.906,0.472,2.688,0.673,3.58c0.055,0.247,0.268,0.396,0.519,0.363
			c-0.125-0.694-0.442-0.742-0.954-0.143c-0.252,0.146-0.468,0.531-0.602,0.707c-0.807,1.054-0.896,1.718-1.134,2.9
			C93.771,68.075,94.664,68.152,94.777,67.593z"/>
	</g>
</g>
<g>
	<path fill="#FFFFFF" d="M90.698,75.97c0,0,2.903-8.944,3.948-8.944c1.046,0,1.626,2.904,1.046,5.227
		c-0.582,2.324-1.046,3.833-0.93,4.647c0.115,0.812-2.438,4.762-2.787,5.342c-0.349,0.581-0.117,2.556-0.581,2.788
		c-0.465,0.232-2.788,1.394-2.904,0.349c-0.115-1.045,1.975-7.783,1.975-9.06L90.698,75.97z"/>
	<g>
		<path d="M91.119,76.126c0.709-2.17,1.484-4.321,2.372-6.424c0.273-0.646,0.582-1.274,0.943-1.875
			c0.994,0.918,1.323,2.039,0.988,3.362c-0.22,1.113-0.476,2.217-0.766,3.312c-0.472,1.861-0.513,3.166-1.483,4.898
			c-0.586,1.045-1.419,2.024-1.771,3.177c-0.134,0.438-0.117,1.043-0.152,1.497c-0.066,0.849-2.419,1.884-2.251,0.652
			c0.254-1.871,0.888-3.737,1.35-5.566c0.206-0.817,0.247-2.229,0.717-2.93c0.323-0.482-0.413-0.999-0.736-0.517
			c-0.945,1.41-0.993,3.807-1.419,5.461c-0.301,1.169-1.479,3.747-0.541,4.849c0.587,0.691,3.03-0.163,3.393-0.734
			c0.593-0.934,0.168-2.118,0.747-3.056c0.633-1.025,1.286-2.043,1.844-3.111c0.759-1.453,3.835-13.176,0.215-12.538
			c-2.266,0.4-3.692,7.395-4.292,9.231C90.095,76.365,90.94,76.678,91.119,76.126z"/>
	</g>
</g>
<path d="M94.937,70.9c0,0-0.237-3.435-0.829-1.658s-1.776,4.854-1.658,6.157c0.118,1.302,0.71,3.079,0.118,3.671
	c-0.592,0.592-1.776,2.486-1.776,3.788c0,1.302,2.605-4.616,2.725-5.09C93.634,77.293,93.041,68.769,94.937,70.9z"/>
<g>
	<path fill="#FFFFFF" d="M48.115,75.833c0,0-2.986-8.944-4.061-8.944c-1.074,0-1.671,2.904-1.074,5.227
		c0.597,2.324,1.075,3.833,0.955,4.646c-0.119,0.813,2.508,4.762,2.866,5.343c0.358,0.581,0.12,2.555,0.597,2.788
		c0.478,0.232,2.867,1.394,2.986,0.349c0.119-1.045-2.031-7.782-2.031-9.06L48.115,75.833z"/>
	<g>
		<path d="M48.522,75.64c-0.735-2.187-1.918-8.286-4.312-9.173c-3.269-1.211-0.782,10.631-0.183,11.891
			c0.609,1.282,1.433,2.479,2.197,3.671c0.556,0.868,0.085,2.011,0.62,2.831c0.5,0.767,2.761,1.792,3.602,1.077
			c1.123-0.954-0.212-3.782-0.485-4.823c-0.434-1.657-0.535-4.158-1.502-5.572c-0.328-0.479-1.012,0.107-0.687,0.582
			c0.463,0.676,0.492,2.024,0.691,2.819c0.432,1.72,0.922,3.424,1.312,5.154c0.27,1.196-1.114,0.86-1.843,0.551
			c-0.628-0.267-0.512-2.06-0.688-2.623c-0.364-1.158-1.441-2.339-2.049-3.393c-0.913-1.584-0.974-3.538-1.432-5.299
			c-0.394-1.513-0.616-2.604-0.501-4.209c0.251-3.521,1.314-0.969,1.737-0.112c1.102,2.238,1.917,4.65,2.709,7.013
			C47.893,76.575,48.704,76.185,48.522,75.64z"/>
	</g>
</g>
<path d="M43.315,70.189c0,0,0.473-1.301,0.947-0.709c0.474,0.591,0.592,3.314,1.065,4.736c0.473,1.421,0.118,2.722,1.185,3.552
	c1.065,0.829,1.302,2.605,1.302,3.907s-1.184-2.842-2.014-3.671c-0.828-0.829-1.775-7.458-1.775-7.458L43.315,70.189z"/>
<g>
	<path fill="#751D1E" d="M86.698,104.088c0,0,8.008,1.068,19.039,11.211s22.776,8.186,26.157,8.363s8.719,0.178,8.719,0.178
		l-40.737,3.004c0,0,20.097,18.883,34.864,21.018c0,0-26.156,3.025-51.779-15.658c0,0-4.446,14.352,26.246,32.713
		c0,0-27.491-1.039-42.972-29.154c0,0-9.607,23.844-41.103,26.156c0,0,15.835-1.422,24.911-27.578c0,0-18.861,12.633-44.306,5.336
		c0,0,22.334-2.727,33.052-16.666c0,0-17.395,8.48-35.722,0.475c0,0,18.327,1.779,30.25-7.65
		c11.921-9.43,13.878-12.812,19.75-12.812S82.607,101.953,86.698,104.088z"/>
	<g>
		<path d="M86.656,104.537c11.415,1.703,18.41,12.959,28.534,17.324c4.491,1.936,9.483,2.365,14.316,2.271
			c2.04-0.039,4.067,0.053,6.108,0.102c1.414,0.033,2.83,0.043,4.245,0.051c0.662,0.004,1.08-0.918,0.397-0.869
			c-13.486,0.994-26.974,1.99-40.46,2.984c-0.322,0.023-0.505,0.51-0.265,0.734c3.765,3.52,7.825,6.74,11.979,9.785
			c3.439,2.521,7.047,4.902,10.829,6.879c2.211,1.156,4.449,2.193,6.785,3.07c1.083,0.406,2.197,0.707,3.314,1
			c2.279,0.596,0.114-0.219,2.189-0.447c-17.926,1.971-37.107-5.406-51.411-15.588c-0.225-0.16-0.598-0.068-0.68,0.213
			c-0.811,2.754,0.114,5.982,1.084,8.551c3.538,9.367,12.56,16.273,20.529,21.666c1.764,1.193,2.883,2.107,5.073,2.203
			c-0.182-0.008-0.363-0.023-0.544-0.037c-0.842-0.066-1.678-0.184-2.512-0.311c-3.522-0.533-6.957-1.539-10.293-2.773
			c-12.652-4.68-22.643-14.148-29.235-25.777c-0.192-0.338-0.675-0.338-0.829,0.037c-5.682,13.854-20.716,22.51-34.748,25.133
			c-1.474,0.275-2.965,0.438-4.454,0.604c-2.25,0.248-1.866,1.084-1.205,0.994c0.616-0.084,1.22-0.246,1.817-0.416
			c2.098-0.596,4.127-1.578,5.951-2.766c8.734-5.688,13.846-15.084,17.291-24.658c0.166-0.461-0.356-0.734-0.713-0.5
			c-3.888,2.564-8.515,4.197-12.954,5.461c-4.712,1.34-9.602,1.926-14.489,2.037c-5.342,0.123-11.636-2.023-16.331-1.396
			c12.268-1.637,25.296-7.041,33.18-16.83c0.29-0.359-0.171-0.85-0.562-0.664c-3.22,1.535-6.753,2.412-10.238,3.092
			c-3.797,0.74-7.674,0.871-11.529,0.674c-4.594-0.232-9.711-2.1-13.582-2.418c9.505,0.781,19.689-1.086,27.882-6.021
			c5.177-3.119,9.509-7.711,14.264-11.424c3.779-2.951,7.309-3.008,11.877-3.105c5.203-0.113,10.405-0.223,15.61-0.188
			c4.213,0.029,9.706-0.453,13.66,1.297c0.532,0.236,0.84-0.609,0.312-0.844c-5.659-2.504-13.84-1.395-19.839-1.34
			c-5.592,0.049-12.827-0.951-18.183,1.025c-2.749,1.016-5.099,3.295-7.298,5.135c-5.02,4.197-9.814,8.604-15.873,11.252
			c-6.809,2.975-15.161,3.969-22.551,3.299c-0.518-0.047-0.667,0.678-0.199,0.869c7.837,3.207,15.954,4.07,24.318,2.893
			c2.914-0.412,5.773-1.186,8.561-2.117c0.798-0.266,1.581-0.574,2.359-0.895c0.208-0.088,0.415-0.178,0.621-0.271
			c-1.282,0.572-1.03,0.186-2.865,2.102c-7.514,7.848-19.606,12.266-30.246,13.615c-0.43,0.055-0.513,0.748-0.078,0.865
			c14.55,3.936,31.501,2.951,44.534-5.273c-0.829,0.523-1.718,2.643-2.35,4.168c-1.286,3.107-2.917,6.057-4.736,8.881
			c-2.274,3.533-5.152,6.654-8.465,9.229c-2.617,2.035-6.123,4.029-9.51,4.373c-0.58,0.059-0.415,0.936,0.156,0.887
			c16.614-1.424,34.629-10.209,41.438-26.424c-0.847,2.016,3.188,6.393,4.297,7.881c1.94,2.602,4.183,5.055,6.591,7.232
			c4.356,3.936,9.167,7.146,14.476,9.65c5.225,2.463,11.321,4.408,17.152,4.662c0.421,0.02,0.709-0.568,0.3-0.816
			c-9.458-5.756-19.542-12.787-24.484-23.066c-1.028-2.139-1.7-4.506-1.792-6.885c-0.131-3.396,0.434-1.348,2.652,0.156
			c13.633,9.244,32.299,15.387,48.978,13.553c0.533-0.059,0.438-0.811-0.036-0.891c-10.544-1.791-19.943-8.809-28.116-15.338
			c-2.162-1.727-4.277-3.523-6.312-5.4c0.263,0.244-0.877,0.646,0.353,0.555c1.078-0.078,2.157-0.158,3.235-0.238
			c12.25-0.902,24.5-1.807,36.75-2.709c0.505-0.037,0.47-0.891-0.036-0.893c-10.576-0.014-21.169,0.652-30.508-5.195
			c-7.684-4.814-13.827-13.125-23.407-14.555C86.164,103.555,86.084,104.451,86.656,104.537z"/>
	</g>
</g>
<g>
	<path fill="#FFFFFF" d="M54.223,103.867c0,0-2.546,0.936-2.278,3.348c0.268,2.414,6.029,12.059,12.459,12.863
		c6.431,0.803,17.55-2.414,20.899-8.309s1.206-8.977-0.535-9.377C83.027,101.992,61.993,97.303,54.223,103.867z"/>
	<g>
		<path d="M54.03,103.461c-7.194,3.092,2.938,13.1,5.982,15.316c7.021,5.109,20.126,0.166,25.07-5.842
			c2.144-2.604,3.39-6.922,1.426-9.906c-1.026-1.559-4.142-1.602-5.706-1.877c-8.231-1.459-19.719-3.1-26.869,2.371
			c-0.461,0.354,0.122,1.039,0.582,0.686c5.059-3.869,12.304-3.588,18.329-3.164c3.184,0.225,10.487,0.061,12.978,2.568
			c4.336,4.365-3.703,11.346-6.953,13.107c-3.692,2.002-8.08,2.9-12.249,3.031c-4.458,0.137-7.68-2.572-10.412-5.793
			c-1.525-1.799-6.267-7.762-1.791-9.686C54.949,104.045,54.563,103.23,54.03,103.461z"/>
	</g>
</g>
<g>
	<path fill="#FFFFFF" d="M52.009,93.076l2.848,14.057c0,0,7.65,11.568,15.48,8.719c7.829-2.846,12.634-6.938,13.523-7.828
		c0.889-0.891,3.559-18.862,3.559-18.862L52.009,93.076z"/>
	<g>
		<path d="M51.565,93.154c0.54,2.66,1.079,5.322,1.618,7.984c0.344,1.697,0.34,4.818,1.33,6.285
			c3.257,4.824,8.54,9.928,14.785,9.182c4.309-0.514,8.962-3.791,12.443-6.264c1.806-1.281,2.647-1.982,3.162-4.074
			c1.374-5.586,2.116-11.377,2.964-17.063c0.046-0.306-0.251-0.516-0.526-0.486c-11.804,1.305-23.606,2.61-35.41,3.915
			c-0.578,0.064-0.417,0.949,0.156,0.887c7.522-0.832,15.044-1.664,22.567-2.494c3.876-0.43,7.752-0.858,11.629-1.287
			c1.556-0.172,0.682-0.579,0.602-0.044c-0.283,1.875-0.579,3.749-0.88,5.62c-0.519,3.219-0.486,10.652-3.054,12.93
			c-2.432,2.156-5.319,3.775-8.2,5.242c-4.969,2.531-8.878,3.049-13.536-0.238c-3.286-2.32-5.686-5.061-6.435-8.76
			c-0.776-3.83-1.552-7.66-2.328-11.49C52.337,92.43,51.45,92.584,51.565,93.154z"/>
	</g>
</g>
<g>
	<path fill="#FFFFFF" d="M47.828,55.971c0,0,0.357,4.087,0.931,4.39c0.573,0.303-2.541,8.227-1.852,11.025
		c0.688,2.798,3.182,19.641,3.182,19.641s0.428,1.289,2.111,2.879c1.683,1.588,3.742,4.182,4.301,5.4
		c0.559,1.221,4.383,8.355,5.156,9.135c0.772,0.779,7.381,3.48,15.475-0.125c0,0,9.262-14.877,9.691-16.018
		c0.43-1.139,3.817-11.178,3.817-11.794c-0.002-0.616,1.14-4.029,1.615-5.244c0.478-1.215-0.647-5.785-0.887-6.759
		c-0.24-0.975-1.235-7.644-1.235-7.644s-13.224-0.43-20.248-1.931c-7.024-1.502-15.074-2.922-16.315-3.029
		C52.331,55.792,48.203,55.444,47.828,55.971z"/>
	<g>
		<path d="M47.385,56.049c0.197,2.078,1.153,4.22,0.652,6.229c-0.638,2.564-2.017,5.765-1.667,8.456
			c0.75,5.78,1.945,11.542,2.818,17.312c0.841,5.56,5.167,8.148,7.738,13.093c2.677,5.15,3.731,8.441,9.681,9.334
			c3.009,0.449,8.404,0.238,10.816-1.812c1.046-0.889,1.785-2.838,2.495-3.984c2.55-4.125,5.999-8.422,7.615-13.029
			c1.877-5.353,3.176-10.928,5.145-16.229c0.75-2.018-0.389-5.03-0.865-6.994c-0.605-2.493-0.856-5.109-1.235-7.644
			c-0.028-0.188-0.206-0.363-0.401-0.37c-7.329-0.25-14.697-0.761-21.883-2.276c-4.527-0.954-9.082-1.821-13.651-2.546
			c-2.054-0.326-5.065-0.941-7.007-0.023c-0.524,0.248-0.139,1.062,0.387,0.813c2.677-1.267,8.054,0.343,10.807,0.833
			c5.279,0.94,10.502,2.231,15.818,2.94c4.396,0.586,8.843,0.846,13.269,1.063c0.893,0.044,1.864,0.315,1.799-0.123
			c0.237,1.588,0.483,3.174,0.734,4.76c0.488,3.077,2.205,7.046,1.101,10.02c-0.993,2.675-1.556,5.465-2.425,8.179
			c-1.915,5.979-4.143,10.655-7.413,15.999c-1.533,2.504-3.079,5.002-4.63,7.498c-2.174,3.502-11.76,2.469-14.913,0.721
			c-2.18-1.211-3.966-6.582-5.077-8.773c-1.484-2.926-6.144-5.748-6.602-8.83c-0.916-6.165-1.782-12.352-2.951-18.475
			c-0.698-3.654,0.845-6.985,1.568-10.515c0.389-1.901-0.652-3.829-0.836-5.781C48.217,55.315,47.33,55.476,47.385,56.049z"/>
	</g>
</g>
<g>
	<path d="M51.597,72.998c4.24-2.338,10.659-3.114,14.232,0.804c0.088-0.244,0.176-0.487,0.264-0.73
		c-1.81,0.434-3.694,0.431-5.545,0.521c-1.417,0.069-2.822,0.142-4.24,0.089c-0.663-0.024-4.457-0.513-4.457-1.046
		c0-0.573-0.892-0.661-0.892-0.084c0,3.43,13.402,1.854,15.29,1.402c0.314-0.075,0.506-0.465,0.264-0.73
		c-3.847-4.219-10.68-3.581-15.3-1.034C50.71,72.466,51.09,73.277,51.597,72.998z"/>
</g>
<g>
	<path d="M88.442,72.33c-4.602-2.581-11.329-3.227-15.145,1.029c-0.181,0.202-0.051,0.613,0.212,0.677
		c3.102,0.756,6.678,0.76,9.854,0.641c0.976-0.037,5.268-0.435,5.268-1.938c0-0.573-0.891-0.661-0.891-0.085
		c0,1.158-5.941,1.159-6.743,1.128c-1.225-0.047-2.45-0.122-3.675-0.184c-0.174-0.009-2.949-0.119-2.386-0.628
		c3.358-3.036,9.441-1.899,12.992,0.093C88.427,73.343,88.946,72.612,88.442,72.33z"/>
</g>
<g>
	<ellipse fill="#132D14" cx="55.492" cy="72.518" rx="1.294" ry="1.106"/>
	<g>
		<path d="M56.338,72.476c-0.059,0.881-1.515,0.943-1.689,0.093c-0.178-0.869,1.626-0.977,1.694,0.027
			c0.039,0.579,0.925,0.417,0.887-0.156c-0.133-1.964-3.349-1.915-3.48,0.036c-0.137,2.034,3.349,2.106,3.485,0.085
			C57.274,71.981,56.377,71.897,56.338,72.476z"/>
	</g>
</g>
<g>
	<ellipse fill="#132D14" cx="77.349" cy="72.662" rx="1.294" ry="1.105"/>
	<g>
		<path d="M78.196,72.62c-0.06,0.88-1.516,0.942-1.688,0.093c-0.178-0.869,1.626-0.975,1.693,0.027
			c0.039,0.579,0.925,0.417,0.887-0.156c-0.133-1.963-3.349-1.915-3.48,0.036c-0.137,2.033,3.349,2.105,3.485,0.085
			C79.131,72.125,78.235,72.041,78.196,72.62z"/>
	</g>
</g>
<path d="M66.477,71.06c0,0-10.575-4.45-12.309-4.682c-1.733-0.231-3.178,1.099-3.583,1.676c-0.404,0.578,2.543-0.867,4.797-0.521
	C57.635,67.882,66.477,71.753,66.477,71.06z"/>
<path d="M74.33,70.797c0,0,10.028-4.449,11.672-4.68s3.014,1.098,3.396,1.676c0.384,0.578-2.41-0.868-4.547-0.521
	C82.714,67.619,74.33,71.492,74.33,70.797z"/>
<path d="M75.976,70.88c0,0,6.703-1.621,8.323-1.485c1.619,0.135,2.385,1.35,2.475,1.53C86.864,71.104,87.358,68.99,75.976,70.88z"/>
<path d="M73.637,74.388c0,0,1.305,0.9,2.834,1.261C78,76.008,74.581,74.704,73.637,74.388z"/>
<path d="M66.483,74.208c0,0-0.809,1.26-1.798,1.44C63.695,75.829,66.483,74.208,66.483,74.208z"/>
<path d="M62.648,66.969c0,0,3.582,3.048,4.382,3.197c0.799,0.147,1.391-0.356,1.45-0.563C68.539,69.396,67.917,71.408,62.648,66.969
	z"/>
<path d="M72.949,69.574c-0.082,0.085,6.363-4.263,7.222-4.292C81.03,65.252,76.235,66.14,72.949,69.574z"/>
<path d="M87.578,73.338c0,0,0.623-0.24,1.367,0.024C89.69,73.627,88.513,72.762,87.578,73.338z"/>
<path d="M87.484,73.267c0,0,0.695,0.12,0.791,0.264C88.369,73.674,87.484,73.267,87.484,73.267z"/>
<path d="M51.601,73.106c0,0-0.545-0.243-1.199,0.018C49.748,73.385,50.783,72.526,51.601,73.106z"/>
<path d="M51.685,73.035c0,0-0.611,0.118-0.696,0.261S51.685,73.035,51.685,73.035z"/>
<path d="M64.617,71.375c0,0-6.148-2.363-7.695-2.411s-2.415,1.072-2.521,1.24C54.294,70.373,54.076,68.217,64.617,71.375z"/>
<path d="M68.081,84.852l-0.11,2.515c0,0-0.109,0.765,0.711,1.421c0.819,0.656-0.82,0.055-1.367-0.328
	C66.769,88.077,68.081,85.617,68.081,84.852z"/>
<path d="M67.215,88.569l-0.153,0.038l-1.159,0.29c0,0-0.874-0.656-0.382-1.312L67.215,88.569z"/>
<path d="M70.987,88.625l1.641-0.711l0.656,0.656c0,0-1.477,0.601-2.352,0.219L70.987,88.625z"/>
<path d="M68.069,76.085c0,0,0.429,4.902,0.245,6.373C68.131,83.928,68.008,82.09,68.069,76.085z"/>
<path d="M67.659,83.333l-2.672-1.5l-4.693,0.326C60.294,82.159,66.161,82.028,67.659,83.333z"/>
<path d="M71.767,82.876c0,0,1.043-0.783,1.761-0.392C74.244,82.876,71.767,82.876,71.767,82.876z"/>
<g>
	<path fill="#DF3638" d="M59.047,86.963c0,0,8.625,4.125,9.656,4.125c1.031,0,6.75-2.625,7.5-2.812
		c0.749-0.188,3.938-2.156,3.938-2.156S68.797,97.932,59.047,86.963z"/>
	<g>
		<path d="M58.891,87.385c1.606,0.767,3.223,1.512,4.846,2.244c1.257,0.567,3.583,2.117,5.045,1.902
			c3.857-0.57,8.254-2.983,11.553-5.005c-0.162-0.25-0.323-0.5-0.484-0.75c-5.88,5.999-14.31,7.312-20.459,0.896
			c-0.399-0.417-1.089,0.162-0.687,0.582c6.453,6.732,15.419,5.646,21.728-0.792c0.331-0.337-0.019-1.035-0.484-0.75
			c-3.132,1.92-6.497,3.271-9.936,4.555c-3.038,1.134-8.056-2.414-10.809-3.727C58.678,86.291,58.372,87.138,58.891,87.385z"/>
	</g>
</g>
<g>
	<path fill="#DF3638" d="M59.271,87.167c0,0,3.203,10.464,8.115,11.104c4.911,0.641,8.542-0.215,12.385-11.745
		c0,0-2.989,20.178-14.521,12.706C65.25,99.232,60.552,96.137,59.271,87.167z"/>
	<g>
		<path d="M58.828,87.245c1.315,4.2,3.71,10.407,8.516,11.476c7.616,1.691,10.84-6.236,12.849-12.038
			c-0.29-0.066-0.58-0.132-0.87-0.199c-0.651,4.254-2.122,9.029-5.179,12.162c-2.508,2.568-6.302,2.068-8.955-0.025
			c-3.409-2.691-4.793-7.473-5.474-11.532C59.618,86.516,58.732,86.673,58.828,87.245c0.901,5.37,5.404,17.003,13.344,13.722
			c5.242-2.164,7.263-9.277,8.047-14.397c0.078-0.51-0.705-0.675-0.87-0.199c-1.94,5.604-4.338,12.12-11.287,11.528
			c-4.68-0.398-7.133-6.932-8.347-10.81C59.544,86.543,58.655,86.692,58.828,87.245z"/>
	</g>
</g>
<path d="M60.691,85.101c0,0-2.106,1.841-3.422,2.368c-1.316,0.526,2.281,6.666,2.983,10c0.701,3.334-2.807-8.947-2.896-9.474
	C57.269,87.469,59.462,87.557,60.691,85.101z"/>
<path d="M77.479,83.638c0,0,2.477,1.842,4.024,2.368c1.549,0.527-2.683,6.668-3.508,10.002s3.303-8.949,3.405-9.475
	C81.503,86.006,78.924,86.094,77.479,83.638z"/>
<ellipse fill="#FFFFFF" cx="56.162" cy="72.36" rx="0.491" ry="0.433"/>
<ellipse fill="#FFFFFF" cx="56.971" cy="73.372" rx="0.491" ry="0.116"/>
<ellipse fill="#FFFFFF" cx="78.064" cy="72.389" rx="0.434" ry="0.404"/>
<ellipse fill="#FFFFFF" cx="78.555" cy="73.458" rx="0.463" ry="0.202"/>
<path d="M62.895,100.242c0.23,0.695,0.982,1.965,1.501,2.545c0.752,0.807,1.908,0.693,2.948,0.693c2.254,0,4.68,0.287,6.761-0.693
	c-0.694,1.791-5.316,1.561-6.819,1.561c-1.214,0-2.542,0.113-3.352-0.867c-0.578-0.693-1.097-2.197-1.097-3.008L62.895,100.242z"/>
<path d="M67.46,107.178c0.058-0.693,0.925-1.213,1.561-1.039c0.521,0.115,0.809,0.576,1.099,0.982c-0.926-0.348-1.677-0.867-2.544,0
	L67.46,107.178z"/>
<path d="M89.651,79.444c0.142-0.062-2.543,3.736-3.633,6.122c-1.089,2.386-2.387,7.004-4.046,10.274
	C80.312,99.107,88.82,79.808,89.651,79.444z"/>
<path d="M49.73,80.868c-0.15-0.062,2.675,3.735,3.822,6.122c1.146,2.386,2.511,7.004,4.259,10.274
	C59.558,100.531,50.603,81.231,49.73,80.868z"/>
<path d="M52.048,72.171c0,0-0.023-0.009-0.064-0.026c-0.282-0.12-1.41-0.648-1.638-1.58C50.084,69.499,49.766,71.839,52.048,72.171z
	"/>
<path d="M87.692,72.498c1.33-0.231,1.791-2.427,0.636-3.236c0.405,0.578,1.215,1.098,1.215,1.849c0,0.983-0.983,1.213-1.735,1.329
	L87.692,72.498z"/>
<path d="M60.315,58.86c-0.241-0.165,6.781,7.992,7.185,8.477C67.903,67.82,63.14,60.797,60.315,58.86z"/>
<path d="M64.916,57.568c0,0,3.552,9.687,3.552,10.171C68.469,68.224,66.208,58.537,64.916,57.568z"/>
<path d="M69.276,67.417c0,0,1.372-8.557,2.099-9.365S69.276,67.417,69.276,67.417z"/>
<path d="M71.132,67.336c0,0,5.489-11.625,6.619-11.786C78.882,55.388,70.567,67.254,71.132,67.336z"/>
<path d="M65.735,74.166c0,0-7.102,2.013-7.737,2.013c-0.636,0-4.559-1.06-5.406-1.59C51.743,74.06,57.362,76.709,65.735,74.166z"/>
<path d="M73.791,74.166c0,0,8.162,2.12,9.009,2.12c0.849,0,4.559-1.484,4.877-1.908C87.994,73.954,84.815,76.815,73.791,74.166z"/>
<path d="M79.018,87.876c0,0-2.253,7.628-11.327,6.647C67.691,94.523,77.283,96.43,79.018,87.876z"/>
<path d="M73.866,93.162c0,0-0.148,1.393-0.237,1.836C73.541,95.443,74.222,93.727,73.866,93.162z"/>
<g>
	<path fill="#751D1E" d="M42.338,58.536c-0.13-3.499,2.314-5.572,2.357-9.162c0.016-1.366-0.152-2.791,0.227-4.09
		c0.439-1.506,2.476-2.629,2.809-4.079c1.719-0.861,3.619-4.628,4.079-6.375c0.704-2.677,1.447-4.153,3.185-6.528
		c1.615-2.209,2.369-4.104,5.046-5.857c2.326-1.523,4.375-3.103,6.083-5.311c1.55-2.003,2.074-4.146,4.072-5.748
		c2.17-1.739,4.941-3.154,7.917-3.516c6.648-0.808,14.126,0.348,18.853,4.432c1.815,1.569,2.534,2.677,4.903,3.5
		c2.204,0.767,4.793,0.722,5.6,3.063c-4.654,0.624-12.02-1.346-15.451,1.458c-1.649,1.348-1.688,2.66-1.69,4.654
		c-0.002,2.737,1.128,3.216,2.351,5.618c2.093,4.113,1.947,10.209,1.947,14.881c0,1.916-0.224,3.693,0.637,5.296
		c0.57,1.063,1.454,1.592,1.725,2.832c0.23,1.059,0.034,2.262,0.222,3.321c0.274,1.565,1.077,3.349,0.427,4.957
		c-2.804-3.507-10.113-3.738-14.833-3.738c-5.483,0-10.449-1.516-15.815-1.799C62.065,56.087,57.138,56,52.146,56
		c-1.609,0-3.992-0.406-5.527-0.014c-1.804,0.459-2.138,1.911-4.281,1.964V58.536z"/>
	<g>
		<path d="M42.786,58.578c0.258-4.199,2.292-7.584,2.36-11.918c0.05-3.204,4.438-5.928,5.828-8.703
			c1.98-3.953,3.333-7.75,5.819-11.508c2.756-4.166,7.664-6.072,10.525-10.271c4.023-5.903,8.259-8.077,15.442-8.094
			c6.327-0.015,11.035,2.399,15.774,6.259c1.046,0.853,1.949,1.358,3.177,1.88c0.743,0.234,1.493,0.439,2.252,0.615
			c1.817,0.458,1.549,1.721-0.349,1.675c-3.695-0.089-7.34-0.614-10.855,0.798c-2.431,0.976-2.827,3.354-2.882,5.624
			c-0.033,1.396,0.363,2.432,1.036,3.626c1.49,2.645,2.415,4.723,2.909,7.781c0.711,4.404-0.073,8.882,0.532,13.273
			c0.311,2.258,2.109,3.055,2.313,5.726c0.101,1.31,2.059,6.582-0.365,4.774c-2.317-1.728-5.814-2.009-8.575-2.266
			c-5.187-0.482-10.254-0.54-15.434-1.361c-6.007-0.952-12.17-0.891-18.237-0.935c-1.993-0.014-4.259-0.427-6.232-0.176
			c-2.164,0.274-3.419,1.696-5.566,2.127c-0.183,0.037-0.37,0.2-0.37,0.401c0,0.195,0,0.391,0,0.586
			C41.89,59.069,42.786,59.158,42.786,58.578c0-1.662,7.81-2.196,9.317-2.13c5.54,0.239,11.076,0.058,16.615,0.483
			c5.106,0.392,10.019,1.643,15.172,1.668c4.493,0.022,10.082,0.125,13.4,3.575c0.273,0.285,0.733,0.148,0.791-0.249
			c0.276-1.91,0.014-3.162-0.432-5.078c-0.35-1.502,0.252-3.241-0.763-4.583c-3.075-4.071-1.646-11.15-2.179-16.077
			c-0.528-4.885-6.48-11.205-2.401-15.52c3.051-3.228,11.173-1.004,15.238-1.358c0.283-0.025,0.462-0.394,0.328-0.637
			c-1.667-3.036-5.221-2.673-7.975-4.375c-1.804-1.115-3.229-2.878-5.04-4.045c-1.717-1.106-3.745-1.711-5.688-2.251
			c-7.705-2.138-17.552-0.938-21.889,6.446c-2.717,4.627-7.273,6.535-10.532,10.496c-2.65,3.22-4.363,6.67-5.644,10.587
			c-1.272,3.894-5.213,5.84-6.606,9.596c-0.781,2.104-0.138,4.661-0.735,6.865c-0.619,2.283-1.726,4.089-1.875,6.501
			C41.854,59.072,42.751,59.157,42.786,58.578z"/>
	</g>
</g>
<path d="M53.849,55.609c0,0,13.153-4.291,13.742-4.291c0.589,0,13.35,0.391,16.098,0.585c2.748,0.195,9.424,0,4.515-2.145
	c-4.907-2.146-9.424-4.096-10.6-4.291c-1.18-0.195-1.18-2.925,1.962-2.925s6.283,0.195,8.835,0.39
	c2.552,0.195,1.178-2.73,1.178-2.73s-3.155-2.535-6.434-3.706l-4.05-0.195c0,0,6.557-1.17,9.643,0c3.084,1.17,0-7.217-7.329-8.582
	c-7.326-1.365,0.579-2.73,4.243-1.17c3.664,1.56,4.436-1.17,3.856-3.315c-0.578-2.146-2.12-4.876,0.579-5.852
	c2.7-0.976,3.025-1.56,6.167-1.17c3.14,0.39,4.907,0.78,6.085,1.17c1.178,0.39,3.534,0.976,3.534,0.976l0.634,0.486
	c0,0-9.547-0.349-11.545,0.209c-1.997,0.558-4.201,2.229-4.271,3.763c-0.069,1.533-0.069,3.623,0.552,4.947
	c0.62,1.324,2.756,4.18,2.825,6.549c0.067,2.369,0.867,10.243,0.867,10.243s-0.212,4.808,0.49,5.992
	c0.702,1.185,2.104,2.578,2.034,5.296c-0.07,2.717,0.771,3.832,0.771,3.832l-0.35,1.951l-2.664-1.602c0,0-5.472-2.299-14.309-1.881
	L68.005,56.33l-14.869-0.278L53.849,55.609z"/>
<path d="M77.104,48.527c0,0-9.894-2.788-12.611-2.788c-2.716,0-8.919,1.463-10.87,2.578C51.672,49.433,63.587,44.555,77.104,48.527z
	"/>
<path d="M67.071,38.006c0,0,3.345-2.927,11.01-0.139c7.663,2.787,8.291,4.667,11.427,6.201C92.643,45.6,76.546,36.891,67.071,38.006
	z"/>
<path d="M89.926,31.665c0,0-6.899-2.718-11.986-2.369C72.854,29.645,87.069,29.923,89.926,31.665z"/>
<path d="M45.611,51.174c0,0,2.787-0.906,7.525-0.697C57.873,50.687,49.791,51.244,45.611,51.174z"/>
<path d="M45.819,44.695c0,0,4.808-0.767,6.131-1.604c1.324-0.836,5.087-1.951,8.571-1.463c3.484,0.488,1.255-1.185-0.766-1.603
	s-5.993-0.836-6.411-0.836c-0.418,0,0.835-1.254,2.996-1.881c2.16-0.627,4.738-1.115,6.271-0.906
	c1.533,0.209-5.296-1.394-9.058,0.418c-3.763,1.812,4.459-8.361,4.459-8.361s-1.812-1.812,4.041-0.349
	c5.854,1.463,0.837-0.139-3.205-2.927c0,0,1.533-0.488,5.644,0.14c4.111,0.627-1.811-2.718-1.811-2.718s2.298-1.115,2.996-2.647
	c0.696-1.533,4.319-7.525,4.319-7.943s-0.201-0.292-0.201-0.292l-2.083,2.739l-2.469,3.818l-3.434,3.008l-4.474,3.819l-3.896,5.593
	l-1.735,4.59l-2.43,4.667l-1.543,1.388l-0.694,1.081l-1.813,2.468L45.819,44.695z"/>
<g>
	<ellipse fill="#DF3638" cx="110.869" cy="20.889" rx="5.716" ry="5.824"/>
	<g>
		<path d="M116.137,20.847c-0.349,6.595-9.46,7.146-10.508,0.599c-0.476-2.974,1.948-5.447,4.695-5.903
			c3.289-0.546,5.662,2.474,5.817,5.425c0.03,0.579,0.917,0.416,0.887-0.156c-0.183-3.45-2.656-6.004-6.118-6.194
			c-3.514-0.192-6.035,2.992-6.206,6.23c-0.185,3.49,2.846,6.134,6.122,6.314c3.514,0.193,6.036-2.991,6.207-6.229
			C117.064,20.353,116.168,20.267,116.137,20.847z"/>
	</g>
</g>
<g>
	<path fill="#751D1E" d="M68.948,48.642c-9.793-2.38-19.981-5.714-29.188-10.714c-9.794-5-25.074-13.571-31.931,2.143
		c-0.392,0.477-1.175,1.191-1.567,1.667c4.31,0.238,9.012-0.476,13.322,0c5.289,0.714,10.97,3.572,15.476,6.667
		c4.31,3.096,7.64,6.19,12.537,7.143c5.486,0.953,11.363,0.715,17.044,1.19c9.795,1.19,21.157,5.001,31.148,2.857
		c9.99-2.143,16.846-17.381,27.817-12.143c2.351,0.953,4.31,2.62,6.072,4.524c0.784-13.571-10.97-17.857-19.98-15.238
		c-4.703,1.429-8.424,5.953-12.539,8.333c-4.113,2.381-9.01,3.095-13.321,3.571c-3.917,0.238-8.423,0.953-12.145,0.238
		c-3.723-0.714-6.661-1.904-10.384-1.904L68.948,48.642z"/>
	<g>
		<path d="M69.103,48.222c-7.846-1.946-15.51-4.373-22.92-7.62c-5.887-2.579-11.341-5.991-17.376-8.253
			c-4.131-1.548-8.586-2.317-12.89-1.09c-5.31,1.514-6.559,6.536-9.946,10.137c-0.24,0.254-0.182,0.774,0.247,0.787
			c6.171,0.185,12.011-0.717,18.032,1.144c6.575,2.033,11.608,6.592,17.264,10.235c4.083,2.631,8.818,2.9,13.534,3.162
			c6.74,0.375,13.116,0.944,19.757,2.205c9.001,1.708,19.01,3.582,27.135-1.708c3.805-2.477,6.933-5.851,10.753-8.32
			c6.03-3.897,11.982-1.415,16.643,3.364c0.249,0.255,0.777,0.17,0.787-0.248c0.271-10.918-7.693-17.703-18.462-16.188
			c-7.853,1.104-12.802,8.919-20.409,11.113c-4.108,1.185-8.512,1.339-12.745,1.677c-5.971,0.477-11.29-1.792-17.156-2.09
			c-0.591-0.03-0.635,0.771-0.084,0.892c2.546,0.555,5.093,1.111,7.64,1.666c0.564,0.123,0.64-0.771,0.084-0.892
			c-1.273-0.278-2.546-0.555-3.819-0.833c-0.875-0.191-1.751-0.382-2.626-0.573c-1.495-0.326-1.431,0.624,0.525,0.723
			c3.427,0.174,6.806,1.57,10.219,2.037c3.458,0.474,7.182-0.214,10.626-0.467c4.974-0.366,10.628-1.47,14.757-4.444
			c5.911-4.256,10.488-8.755,18.278-8.059c6.371,0.569,10.898,5.17,12.104,11.29c0.937,4.75-1.818,1.127-3.827-0.132
			c-1.777-1.113-3.842-1.658-5.904-1.819c-8.363-0.653-14.703,9.598-21.703,12.652c-6.75,2.946-15.81,0.754-22.729-0.534
			c-7.897-1.47-15.559-1.835-23.544-2.457c-8.354-0.65-13.472-6.274-20.361-10.213c-5.781-3.306-11.452-4.388-18.021-4.166
			c-1.677,0.057-3.349,0.123-5.028,0.138c-1.295,0.012-0.165-0.408,0.259-1.013c2.03-2.899,2.923-5.447,6.099-7.396
			c4.934-3.028,11.471-0.871,16.354,1.094c4.697,1.889,9.08,4.495,13.634,6.687c6.773,3.261,13.989,5.57,21.232,7.52
			c1.09,0.287,2.182,0.563,3.277,0.83C69.347,49.2,69.662,48.361,69.103,48.222z"/>
	</g>
</g>
<g>
	<path fill="#751D1E" d="M42.698,59.828c0-3.855,0-5.396,1.947-8.481c1.515-2.056,0.433-1.799,2.813-2.57
		c1.299-0.514,3.03,0,4.329,0c9.522,0,18.613,2.056,27.92,2.056c4.328,0,12.985-1.542,16.666,1.542
		c1.515,1.542,2.163,4.626,1.947,7.453c-0.433,5.14-1.947,2.056-5.411,1.028c-4.328-1.286-8.874-0.257-13.202-0.514
		c-4.329-0.257-8.873-1.286-13.419-2.056c-4.545-0.514-20.994-6.168-24.025,0.514L42.698,59.828z"/>
	<g>
		<path d="M43.143,59.871c0.013-3.566,0.491-6.17,2.514-9.25c1.691-2.573,7.078-1.407,9.875-1.298
			c7.451,0.291,14.818,1.633,22.274,1.93c5.526,0.22,11.161-1.221,16.556,0.486c4.005,1.267,4.774,11.523,0.554,9.479
			c-2.233-1.082-4.445-1.358-6.902-1.466c-3.385-0.15-6.737,0.272-10.132-0.009c-3.878-0.32-7.726-1.228-11.552-1.902
			c-3.648-0.643-7.237-1.574-10.891-2.197c-2.53-0.432-15.651-1.557-13.146,4.377c0.225,0.532,1.033,0.146,0.809-0.385
			c-2.161-5.119,12.335-3.104,14.482-2.702c6.121,1.146,12.154,2.535,18.323,3.469c4.032,0.611,7.972,0.281,12.022,0.24
			c3.427-0.036,5.706,1.195,8.667,2.432c2.703,1.129,2.17-5.166,2.093-6.17c-0.354-4.654-3.506-6.259-7.697-6.791
			c-2.65-0.336-5.419-0.045-8.075,0.126c-4.781,0.31-9.517-0.086-14.272-0.577c-4.343-0.448-8.667-0.968-13.027-1.232
			c-3.118-0.189-6.416-0.726-9.412,0.307c-3.547,1.223-3.942,8.177-3.953,11.047C42.25,60.359,43.141,60.447,43.143,59.871z"/>
	</g>
</g>
<path d="M80.886,51.056c0,0,1.225,1.459,1.225,2.118c0,0.658-1.601,1.647-0.848,2.307c0.753,0.658,2.4,1.271,3.248,1.365
	c0.847,0.094,1.506,0.235,3.295,1.176c1.788,0.941-1.977,0.566-2.543,0.566c-0.563,0-2.399,0.235-3.718,0.753
	c-1.317,0.518-1.224,1.035-1.224,1.035s8.614-0.283,11.062,0.188c2.448,0.47,5.084,2.071,5.084,2.071l0.846,0.094l0.942-2.259
	l-0.047-4.047l-1.082-3.249l-1.884-1.601l-2.871-0.847l-5.837-0.235L80.886,51.056z"/>
<path d="M79.193,54.352c0,0,8.236-0.047,11.813,1.129C94.584,56.657,79.193,54.352,79.193,54.352z"/>
<path d="M86.017,57.458c2.353,0.046,4.849,0.988,6.826,2.259c-0.611,0-1.225-0.375-1.837-0.565c-0.752-0.282-1.553-0.47-2.353-0.752
	c-0.518-0.188-2.637-0.282-2.307-0.989L86.017,57.458z"/>
<path d="M42.665,58.164c0,0,3.577-2.4,4.331-2.4c0.752,0,2.636,0.046,3.86,0.093c1.224,0.048,2.212,0.282,3.013,0.188
	c0.799-0.094,2.447,0.424,0.894-0.518c-1.553-0.942-1.977-1.459-3.248-2.023c-1.271-0.565,0.094-0.707,1.647-0.8
	c1.554-0.095,2.636-1.225,4.661-0.425c2.024,0.801,2.588,0.142,0.847-0.658c-1.741-0.8-2.307-1.129-4.048-1.506
	c-1.742-0.376-3.013-0.894-3.013-0.894s0.8-0.142,2.306-0.142c1.507,0-0.423-0.376-0.423-0.376l-3.765-0.141l-1.742,0.047
	l-2.024,0.707l-0.8,1.318l-1.506,2.589l-0.847,2.494L42.665,58.164z"/>
<path d="M64.571,53.464c0,0,3.511,3.511,6.631,3.706c3.12,0.195,3.706-0.585,6.047-2.146C79.589,53.464,71.592,56.975,64.571,53.464
	z"/>
<g>
	<ellipse fill="#DF3638" cx="130.049" cy="52.563" rx="5.716" ry="5.823"/>
	<g>
		<path d="M135.317,52.521c-0.349,6.594-9.46,7.145-10.507,0.599c-0.476-2.974,1.946-5.447,4.693-5.903
			c3.289-0.546,5.663,2.475,5.818,5.425c0.031,0.579,0.917,0.416,0.887-0.156c-0.183-3.45-2.657-6.004-6.118-6.194
			c-3.514-0.193-6.034,2.992-6.205,6.23c-0.185,3.49,2.845,6.134,6.121,6.313c3.514,0.193,6.035-2.99,6.207-6.229
			C136.243,52.026,135.348,51.941,135.317,52.521z"/>
	</g>
</g>
<g>
	<ellipse fill="#DF3638" cx="7.166" cy="44.17" rx="5.716" ry="5.823"/>
	<g>
		<path d="M12.433,44.128c-0.349,6.595-9.46,7.145-10.507,0.599c-0.476-2.974,1.948-5.447,4.695-5.902
			c3.288-0.546,5.662,2.474,5.817,5.424c0.031,0.579,0.917,0.416,0.887-0.156c-0.183-3.449-2.657-6.004-6.117-6.194
			c-3.514-0.193-6.035,2.991-6.207,6.229c-0.185,3.49,2.846,6.134,6.122,6.314c3.514,0.193,6.036-2.991,6.207-6.229
			C13.36,43.634,12.464,43.548,12.433,44.128z"/>
	</g>
</g>
<path d="M12.107,40.981c0,0,8.971-3.315,12.872-1.95s7.217,4.681,13.262,6.826c6.046,2.146,8.731,3.067,11.485,2.704
	c2.752-0.363-6.609,5.488-6.609,5.488l-8.06-5.645c0,0-9.752-5.448-12.614-6.058s-10.143-0.78-10.143-0.78L12.107,40.981z"/>
<path d="M95.974,51.514c0,0,5.851,0.39,9.946-2.535c4.096-2.926,2.535-6.242,9.556-5.071c7.022,1.17,10.143,4.291,10.143,4.291
	s-5.461-1.951-6.436-1.951c-0.976,0-8.973,3.121-10.338,4.876s-9.166,7.412-11.117,7.606C95.779,58.925,95.974,51.514,95.974,51.514
	z"/>
<path d="M112.704,36.183c0,0-4.433,3.069-4.773,4.773c-0.341,1.706-0.853,3.069-0.341,3.751c0.512,0.682-4.123-3.735,5.116-8.709
	L112.704,36.183z"/>
<path d="M107.732,37.693c0,0-2.843,3.444-2.952,3.607c-0.11,0.165-0.821,1.477,0,2.515c0.819,1.039,2.187,3.389,2.187,3.389
	s-3.827-4.318-3.172-5.686C104.451,40.153,107.732,37.693,107.732,37.693z"/>
<path d="M35.196,35.679c0,0,3.588,4.413,7.106,6.714s6.714,4.107,10.821,3.911S49.081,47.869,35.196,35.679z"/>
<g>
	<ellipse fill="#DF3638" cx="140.748" cy="123.594" rx="4.413" ry="4.496"/>
	<g>
		<path d="M144.713,123.553c-0.263,4.973-7.119,5.395-7.909,0.453c-0.358-2.242,1.476-4.096,3.542-4.438
			c2.487-0.414,4.255,1.883,4.372,4.104c0.03,0.58,0.917,0.416,0.887-0.156c-0.144-2.707-2.101-4.717-4.814-4.865
			c-2.768-0.152-4.769,2.344-4.903,4.902c-0.145,2.748,2.232,4.844,4.819,4.984c2.767,0.152,4.768-2.342,4.903-4.9
			C145.64,123.059,144.744,122.973,144.713,123.553z"/>
	</g>
</g>
<g>
	<ellipse fill="#DF3638" cx="134.001" cy="147.857" rx="4.413" ry="4.496"/>
	<g>
		<path d="M137.965,147.814c-0.263,4.975-7.118,5.396-7.908,0.455c-0.358-2.242,1.476-4.098,3.541-4.439
			c2.488-0.414,4.255,1.885,4.372,4.105c0.03,0.578,0.917,0.416,0.887-0.156c-0.144-2.707-2.101-4.719-4.813-4.867
			c-2.768-0.152-4.769,2.344-4.903,4.902c-0.145,2.748,2.232,4.846,4.819,4.986c2.767,0.152,4.767-2.344,4.902-4.902
			C138.892,147.32,137.996,147.234,137.965,147.814z"/>
	</g>
</g>
<g>
	<ellipse fill="#DF3638" cx="110.444" cy="166.037" rx="4.412" ry="4.498"/>
	<g>
		<path d="M114.407,165.996c-0.263,4.975-7.117,5.396-7.907,0.453c-0.357-2.24,1.476-4.094,3.541-4.436
			c2.486-0.412,4.254,1.881,4.371,4.102c0.031,0.58,0.917,0.416,0.887-0.156c-0.144-2.705-2.101-4.715-4.813-4.863
			c-2.767-0.152-4.767,2.342-4.902,4.9c-0.146,2.748,2.23,4.844,4.818,4.986c2.768,0.152,4.768-2.346,4.902-4.902
			C115.334,165.502,114.438,165.416,114.407,165.996z"/>
	</g>
</g>
<g>
	<ellipse fill="#DF3638" cx="23.319" cy="162.9" rx="4.413" ry="4.498"/>
	<g>
		<path d="M27.283,162.859c-0.263,4.975-7.119,5.396-7.909,0.453c-0.358-2.24,1.476-4.096,3.541-4.438
			c2.487-0.414,4.256,1.885,4.373,4.104c0.031,0.58,0.917,0.416,0.887-0.156c-0.144-2.705-2.103-4.717-4.814-4.865
			c-2.767-0.152-4.768,2.344-4.903,4.902c-0.145,2.748,2.231,4.844,4.818,4.986c2.768,0.152,4.769-2.344,4.904-4.902
			C28.21,162.365,27.314,162.279,27.283,162.859z"/>
	</g>
</g>
<g>
	<ellipse fill="#DF3638" cx="5.369" cy="139.393" rx="4.413" ry="4.496"/>
	<g>
		<path d="M9.334,139.352c-0.263,4.973-7.118,5.393-7.909,0.453c-0.359-2.242,1.477-4.096,3.542-4.438
			c2.487-0.414,4.255,1.883,4.372,4.104c0.031,0.58,0.917,0.416,0.887-0.156c-0.143-2.705-2.101-4.717-4.813-4.865
			c-2.768-0.152-4.769,2.344-4.904,4.902c-0.145,2.746,2.234,4.844,4.819,4.984c2.767,0.152,4.768-2.344,4.903-4.9
			C10.26,138.857,9.365,138.771,9.334,139.352z"/>
	</g>
</g>
<g>
	<ellipse fill="#DF3638" cx="1.354" cy="123.986" rx="4.413" ry="4.496"/>
	<g>
		<path d="M5.319,123.945c-0.263,4.973-7.119,5.393-7.909,0.453c-0.359-2.242,1.476-4.096,3.542-4.438
			c2.488-0.414,4.255,1.883,4.372,4.104c0.031,0.58,0.917,0.416,0.887-0.156c-0.143-2.705-2.101-4.717-4.813-4.865
			c-2.768-0.152-4.769,2.342-4.904,4.902c-0.145,2.748,2.233,4.844,4.819,4.984c2.767,0.152,4.768-2.344,4.903-4.9
			C6.245,123.451,5.349,123.365,5.319,123.945z"/>
	</g>
</g>
</svg>
